<?xml version="1.0" encoding="UTF-8" standalone="no"?>
<svg
   xmlns:dc="http://purl.org/dc/elements/1.1/"
   xmlns:cc="http://creativecommons.org/ns#"
   xmlns:rdf="http://www.w3.org/1999/02/22-rdf-syntax-ns#"
   xmlns:svg="http://www.w3.org/2000/svg"
   xmlns="http://www.w3.org/2000/svg"
   xmlns:sodipodi="http://sodipodi.sourceforge.net/DTD/sodipodi-0.dtd"
   xmlns:inkscape="http://www.inkscape.org/namespaces/inkscape"
   width="190mm"
   height="70mm"
   viewBox="0 0 190 70"
   version="1.1"
   id="svg8"
   inkscape:version="1.0 (4035a4f, 2020-05-01)"
   sodipodi:docname="dessin.svg">
  <defs
     id="defs2">
    <clipPath
       id="clipPath1325"
       clipPathUnits="userSpaceOnUse">
      <rect
         ry="4.5796729e-15"
         y="12.53494"
         x="84.564079"
         height="45.275459"
         width="121.42053"
         id="rect1327"
         style="opacity:1;fill:#56b458;fill-opacity:1;stroke:none;stroke-width:0.165;stroke-miterlimit:4;stroke-dasharray:none;stroke-opacity:1" />
    </clipPath>
  </defs>
  <sodipodi:namedview
     height="100mm"
     id="base"
     pagecolor="#ffffff"
     bordercolor="#666666"
     borderopacity="1.0"
     inkscape:pageopacity="0.0"
     inkscape:pageshadow="2"
     inkscape:zoom="1"
     inkscape:cx="500.97244"
     inkscape:cy="199.87629"
     inkscape:document-units="mm"
     inkscape:current-layer="layer1"
     inkscape:document-rotation="0"
     showgrid="false"
     showguides="true"
     inkscape:guide-bbox="true"
     inkscape:snap-global="true"
     inkscape:window-width="1434"
     inkscape:window-height="770"
     inkscape:window-x="0"
     inkscape:window-y="23"
     inkscape:window-maximized="0" />
  <metadata
     id="metadata5">
    <rdf:RDF>
      <cc:Work
         rdf:about="">
        <dc:format>image/svg+xml</dc:format>
        <dc:type
           rdf:resource="http://purl.org/dc/dcmitype/StillImage" />
        <dc:title></dc:title>
      </cc:Work>
    </rdf:RDF>
  </metadata>
  <g
     inkscape:label="Calque 1"
     inkscape:groupmode="layer"
     id="layer1">
    <g
       transform="translate(-17.486542,-22.771665)"
       id="g1564">
      <path
         sodipodi:nodetypes="ssssssssscssccsscc"
         d="m 26.514131,27.353363 c -3.324,0 -5.99964,2.676152 -5.99964,6.000152 v 48.836292 c 0,3.324 2.67564,6.00016 5.99964,6.00016 h 48.05442 c 3.324,0 6.00015,-2.67616 6.00015,-6.00016 V 33.353515 c 0,-3.324 -2.67615,-6.000152 -6.00015,-6.000152 z m 51.08318,11.103716 c -7.71408,5.208571 -10.01026,9.084108 -13.2953,16.112712 -3.28505,7.028603 -8.09171,16.730345 -12.61784,20.078875 -4.52614,3.34854 -8.96361,4.704109 -13.5785,4.704109 -6.42369,-0.24778 -11.75709,-3.671258 -15.09313,-8.979297 0,0 7.9936,4.275278 13.5847,1.967838 5.59111,-2.307441 12.24723,-13.134588 14.55466,-16.507004 2.30745,-3.372414 7.655,-10.570626 10.5606,-12.33568 3.99575,-2.693387 8.09737,-4.526968 15.88481,-5.041553 z"
         style="fill:#56b458;stroke:none;stroke-width:0.264583"
         id="rect907-0-5-5-8" />
      <path
         sodipodi:nodetypes="ccccccccccccccccccccssccssccccccccccccccccccccccccccccccccccccc"
         id="rect907-0-6-3-4"
         style="fill:#e9def1;fill-opacity:1;stroke:none;stroke-width:0.264583"
         d="m 24.170091,27.836022 c -0.17957,0.0757 -0.35446,0.159507 -0.52451,0.251664 0.16992,-0.09208 0.34509,-0.176009 0.52451,-0.251664 z m 52.73425,0 c 0.14914,0.06288 0.29454,0.13294 0.43718,0.207222 -0.14275,-0.07435 -0.28791,-0.144293 -0.43718,-0.207222 z m 2.2934,1.708939 c 0.18313,0.222086 0.35072,0.457467 0.50074,0.704866 -0.15001,-0.247394 -0.31762,-0.482788 -0.50074,-0.704866 z m -57.96545,0.956532 c -0.0922,0.170058 -0.17596,0.344937 -0.25167,0.524515 0.0757,-0.179583 0.15953,-0.354451 0.25167,-0.524515 z m 58.74266,0.258381 c 0.084,0.174946 0.15975,0.355016 0.22686,0.538986 -0.0671,-0.183968 -0.14281,-0.364043 -0.22686,-0.538986 z m 0.5209,1.689821 c 0.0302,0.199044 0.0506,0.401584 0.061,0.606682 -0.0103,-0.205098 -0.0307,-0.407641 -0.061,-0.606682 z m -2.89854,6.007384 c -7.78744,0.514585 -11.89319,2.360568 -15.88894,5.053955 -2.9056,1.765054 -8.25315,8.963266 -10.5606,12.335681 -2.30743,3.372416 -8.96355,14.199563 -14.55466,16.507002 -5.5911,2.30744 -13.58057,-1.980239 -13.58057,-1.980239 3.33604,5.308039 8.66531,8.743921 15.089,8.9917 4.61489,0 9.05236,-1.355571 13.5785,-4.704111 4.52613,-3.34853 9.33279,-13.050269 12.61784,-20.078875 3.28504,-7.028605 5.58535,-10.916542 13.29943,-16.125113 z m 2.95952,44.054678 c -0.0103,0.205092 -0.0307,0.40763 -0.061,0.606682 0.0302,-0.199041 0.0506,-0.40159 0.061,-0.606682 z m -0.35502,1.757511 c -0.0671,0.18397 -0.14281,0.363519 -0.22686,0.538469 0.084,-0.17494 0.15975,-0.354499 0.22686,-0.538469 z m -59.22119,0.272849 c 0.0757,0.17958 0.15952,0.354462 0.25167,0.52452 -0.0921,-0.170069 -0.17597,-0.344929 -0.25167,-0.52452 z m 58.71786,0.775671 c -0.15002,0.247401 -0.31761,0.48329 -0.50074,0.705379 0.18312,-0.222078 0.35073,-0.457989 0.50074,-0.705379 z m -57.43473,1.130681 c 0.0679,0.0679 0.1372,0.133879 0.20826,0.198429 -0.071,-0.0645 -0.14048,-0.130651 -0.20826,-0.198429 z m 56.54745,0 c -0.0678,0.0678 -0.13729,0.133958 -0.20826,0.198429 0.0711,-0.0646 0.14039,-0.130561 0.20826,-0.198429 z m -55.66016,0.731739 c 0.15954,0.107609 0.32449,0.20756 0.49454,0.29972 -0.17006,-0.0922 -0.33499,-0.192111 -0.49454,-0.29972 z m 54.77287,0 c -0.13054,0.088 -0.26544,0.16977 -0.40307,0.24752 0.13752,-0.0777 0.27263,-0.159541 0.40307,-0.24752 z m -53.7533,0.5519 c 0.35901,0.15132 0.73595,0.269179 1.12706,0.348811 -0.39111,-0.0797 -0.76806,-0.197472 -1.12706,-0.348811 z m 52.18234,0.20102 c -0.18811,0.0583 -0.38055,0.10796 -0.57619,0.147791 0.19586,-0.0399 0.38788,-0.0894 0.57619,-0.147791 z m -0.57619,0.147791 c -0.19565,0.0398 -0.39468,0.07 -0.59687,0.0904 0.2022,-0.0204 0.40122,-0.0506 0.59687,-0.0904 z m -50.47857,0 c 0.19548,0.0398 0.39485,0.07 0.59686,0.0904 -0.20219,-0.0204 -0.40121,-0.0506 -0.59686,-0.0904 z" />
      <path
         sodipodi:nodetypes="ccszscccsc"
         id="path925-2-7-6-1"
         d="m 30.709871,88.157643 -7.69733,-17.784165 c 0,0 5.8023,10.341874 17.65961,8.84399 7.13892,-0.901834 12.52539,-4.945372 15.79557,-9.847335 3.27018,-4.901961 6.88123,-13.911319 10.47824,-20.163592 0.95158,-1.654033 6.82812,-9.387375 10.65135,-10.749462 1.47735,3.796043 1.85095,4.178091 2.95154,7.44902 0,3.60145 0.0186,36.829426 0.0186,36.829426 0,0 -0.74721,5.3874 -5.66598,5.390877 z"
         style="fill:#438144;fill-opacity:1;stroke:none;stroke-width:0.0649823;stroke-linecap:butt;stroke-linejoin:miter;stroke-miterlimit:4;stroke-dasharray:none;stroke-opacity:1" />
      <path
         d="m 64.643281,36.408267 c -2.24506,0.01479 -4.49867,0.270354 -7.07243,0.706416 -6.86332,1.162838 -13.91837,7.606197 -17.45423,14.016715 -5.5026,9.976207 -13.39485,17.195115 -17.10408,19.24208 5.56231,1.999682 11.90614,2.214921 14.65461,0.125738 4.08262,-3.340301 7.4808,-8.356685 12.11192,-15.523083 3.50043,-5.416736 7.76789,-9.947622 11.40654,-12.255067 1.61878,-1.026541 2.89671,-1.978689 4.74028,-2.720766 0.92179,-0.371038 1.98539,-0.689393 3.30316,-0.938442 0.75502,-0.142693 2.89141,-0.385665 3.83491,-0.479558 1.01894,-0.04659 4.53335,-0.125221 4.53335,-0.125221 0,0 -9.75328,-2.048678 -12.95404,-2.048807 z"
         style="fill:#ffffff;fill-opacity:1;stroke:none;stroke-width:0.165;stroke-linecap:butt;stroke-linejoin:miter;stroke-miterlimit:4;stroke-dasharray:none;stroke-opacity:1"
         id="path1099-8-9"
         sodipodi:nodetypes="sssccsssscccs" />
      <path
         id="path1295"
         style="fill:#438144;fill-opacity:1;stroke-width:0.264583"
         d="m 91.885864,58.926634 v 10.054167 10.054166 h 2.016413 2.015898 l -0.125058,-6.680729 c -0.06879,-3.674401 -0.172998,-7.105941 -0.288605,-7.396985 -0.141952,-0.357362 -0.169426,-0.256178 0.01214,-0.07749 0.147865,0.145521 0.524148,1.03849 0.836126,1.984375 0.311975,0.945885 1.30979,3.659621 2.217436,6.03064 l 1.650166,4.264117 0.89231,-0.03078 c 0.87725,-0.0763 0.91219,-0.128804 2.08567,-3.120223 0.65646,-1.67349 1.71621,-4.471456 2.35489,-6.217708 l 1.16117,-3.175 -0.13849,1.5875 c -0.0763,0.873125 -0.21458,4.11758 -0.30748,7.209895 l -0.16898,5.622396 h 2.15336 2.15387 V 68.980801 58.926634 h -2.35024 -2.35076 l -1.58079,4.431771 c -0.86935,2.437476 -1.84533,5.235442 -2.16886,6.217708 -0.32352,0.982268 -0.66751,1.785633 -0.76481,1.785422 -0.0973,-2.12e-4 -0.61419,-1.280134 -1.14825,-2.844271 -0.534057,-1.564137 -1.529191,-4.361799 -2.211234,-6.217193 L 96.59204,58.926634 h -2.352828 z m 48.876596,4.822447 c -1.18868,0.01588 -2.5167,0.46615 -3.86126,1.370975 -1.40814,0.947613 -1.62367,0.877671 -1.62367,-0.526584 0,-0.611077 -0.0773,-0.639755 -1.71979,-0.639755 h -1.7198 v 7.540625 7.540625 h 2.11667 2.11667 v -5.141288 -5.141804 l 0.80615,-0.573609 c 1.02054,-0.726686 2.6002,-0.949486 3.2551,-0.458885 0.71599,0.536369 0.94156,2.193885 0.95446,7.016107 l 0.0114,4.299479 h 2.1394 2.13889 l -0.0987,-5.754687 c -0.0828,-4.828606 -0.17644,-5.935853 -0.58085,-6.880199 -0.7578,-1.769536 -2.19733,-2.674196 -3.93464,-2.651 z m -19.45101,0.01344 c -1.0189,-0.01191 -2.04032,0.233024 -3.24166,0.749824 -4.0206,1.729616 -5.46112,7.626104 -2.81585,11.524361 1.02982,1.517605 1.82085,2.117288 3.65869,2.772442 1.81332,0.646411 3.76696,0.496718 5.66839,-0.433565 2.64799,-1.295543 3.92118,-3.525565 3.93878,-6.899839 0.01,-1.865487 -0.0897,-2.332725 -0.78548,-3.693313 -0.95977,-1.876679 -2.48392,-3.123279 -4.55321,-3.724839 -0.648,-0.188375 -1.25831,-0.28793 -1.86966,-0.295071 z m 50.00625,0 c -1.0189,-0.01191 -2.04032,0.233024 -3.24166,0.749824 -4.0206,1.729616 -5.46112,7.626104 -2.81585,11.524361 1.02982,1.517605 1.82084,2.117288 3.65869,2.772442 1.81332,0.646411 3.76695,0.496718 5.66839,-0.433565 2.64799,-1.295543 3.92108,-3.525565 3.93878,-6.899839 0.01,-1.865487 -0.0896,-2.332725 -0.78548,-3.693313 -0.95976,-1.876679 -2.48393,-3.123279 -4.55321,-3.724839 -0.648,-0.188375 -1.25831,-0.28793 -1.86966,-0.295071 z m -15.39027,0.0894 c -2.65315,0.0069 -3.41624,0.165108 -4.39353,0.638204 -1.6061,0.777502 -2.5454,2.061845 -2.70216,3.693314 -0.17944,1.867463 0.1117,3.023436 1.002,3.976502 l 0.78083,0.836123 -0.71675,0.940512 c -0.91466,1.199179 -0.95882,2.627413 -0.11575,3.76773 l 0.60203,0.814419 -0.78859,0.663525 c -2.20678,1.856883 -1.37609,4.880462 1.59526,5.807397 0.63401,0.197784 2.10993,0.367538 3.2799,0.377238 5.12979,0.04269 8.38893,-1.994043 8.43773,-5.273061 0.0408,-2.744002 -1.45319,-3.708064 -6.01979,-3.885036 -3.70539,-0.143597 -4.07188,-0.220826 -4.28914,-0.90537 -0.277,-0.872738 0.27363,-1.150786 2.33112,-1.176154 2.33233,-0.02878 4.06648,-0.727226 4.97747,-2.004531 0.54138,-0.759111 0.63717,-1.200894 0.63717,-2.94349 v -2.050521 h 1.12448 1.12448 v -1.5875 -1.5875 l -3.50573,-0.06459 c -1.38236,-0.02532 -2.47665,-0.03951 -3.36103,-0.03721 z m -1.07074,2.891814 c 1.45078,0 2.11667,0.758484 2.11667,2.410703 0,0.89299 -0.1548,1.32837 -0.64906,1.82263 -0.40937,0.409374 -0.95211,0.649571 -1.46761,0.649571 -1.24704,0 -2.11666,-1.015701 -2.11666,-2.472201 0,-1.652219 0.66587,-2.410703 2.11666,-2.410703 z m -33.60208,0.55862 c 0.64171,0 1.28369,0.210079 1.73116,0.630454 1.54394,1.450505 1.57701,5.670479 0.0553,7.052281 -1.07843,0.979263 -2.51566,0.982575 -3.57239,0.0083 -1.52163,-1.402992 -1.48879,-5.609952 0.0553,-7.060549 0.44747,-0.420375 1.08893,-0.630454 1.73064,-0.630454 z m 50.00625,0 c 0.6417,0 1.28369,0.210079 1.73116,0.630454 1.54403,1.450505 1.57701,5.670479 0.0553,7.052281 -1.07843,0.979263 -2.51618,0.982575 -3.57291,0.0083 -1.52164,-1.402992 -1.48827,-5.609952 0.0558,-7.060549 0.44748,-0.420375 1.08894,-0.630454 1.73065,-0.630454 z m -15.99799,12.212174 c 1.33353,0.01749 2.70652,0.141449 3.11557,0.359154 0.76378,0.406484 0.46725,1.555295 -0.58394,2.261359 -0.70456,0.473239 -1.24825,0.599289 -2.51354,0.582912 -1.78741,-0.02313 -2.19186,-0.123521 -2.87166,-0.71572 -0.58477,-0.509399 -0.59895,-1.731462 -0.0258,-2.207101 0.25188,-0.209044 1.54588,-0.298077 2.87941,-0.280604 z"
         sodipodi:nodetypes="cccccsssscccsccccccccccccsssccccssssccccccccsccccsssssssssssssssssssssssscccccsscssssssccccccsssssssscscssscsssssssssssssss" />
      <path
         style="fill:#56b458;fill-opacity:1;stroke:none;stroke-width:0.0266522"
         d="m 168.22372,34.296458 c -0.31796,0.268084 -0.63593,0.911485 -0.71542,1.447653 -0.13248,0.777443 -0.0265,1.099143 0.50344,1.742544 0.55644,0.643402 0.8744,0.777443 1.85479,0.777443 2.30524,0 3.44461,-2.225095 1.90779,-3.753173 -0.79491,-0.831059 -2.6762,-0.938293 -3.5506,-0.214467 z"
         id="path1465" />
      <path
         style="fill:#56b458;fill-opacity:1;stroke:none;stroke-width:0.0266522"
         d="m 91.885863,45.877678 v 10.213993 h 2.11976 2.11976 V 52.445732 48.8266 l 1.404341,0.08042 1.377844,0.08043 1.854792,3.538707 1.85479,3.565514 h 2.30524 c 1.29835,0 2.33173,-0.08042 2.33173,-0.16085 0,-0.107234 -0.9009,-1.82297 -2.01377,-3.833598 -1.11287,-2.010629 -2.06676,-3.726365 -2.11976,-3.80679 -0.053,-0.107234 0.39746,-0.50936 0.98039,-0.884677 2.86168,-1.930203 3.20614,-7.45273 0.60943,-9.892292 -1.37784,-1.313611 -2.72919,-1.581695 -7.975596,-1.742545 l -4.848951,-0.107233 z m 8.293557,-6.380394 c 1.53683,0.428934 2.04027,1.072335 2.04027,2.680838 0,1.125952 -0.13248,1.474461 -0.74191,2.117862 -0.82141,0.804251 -2.278745,1.179569 -4.160032,1.018718 l -1.05988,-0.08042 -0.07949,-2.654029 c -0.0265,-1.474461 0,-2.841689 0.05299,-3.029347 0.185479,-0.428934 2.490718,-0.482551 3.948052,-0.05362 z"
         id="path1467" />
      <path
         style="fill:#56b458;fill-opacity:1;stroke:none;stroke-width:0.0266522"
         d="m 157.46594,38.049631 c -0.37096,2.868497 -0.47695,3.002539 -2.17276,3.029347 -0.55643,0 -0.60943,0.107234 -0.60943,1.608503 v 1.608503 h 1.05988 1.05988 v 3.485089 c 0,1.903395 0.13249,4.101683 0.29147,4.879126 0.55644,2.573604 2.72919,3.940831 5.72335,3.592322 2.19925,-0.268083 2.27874,-0.3217 2.06677,-1.715736 -0.26497,-1.769353 -0.29147,-1.796161 -1.53683,-1.715736 -0.9009,0.08042 -1.24536,-0.02681 -1.64281,-0.482551 -0.47695,-0.509359 -0.52994,-1.045527 -0.60943,-4.316149 l -0.10599,-3.726365 h 1.90778 1.88129 l -0.0795,-1.688928 -0.0795,-1.66212 -1.7753,-0.08042 -1.8018,-0.08042 v -1.98382 -2.010628 h -1.69581 -1.7223 z"
         id="path1469" />
      <path
         style="fill:#56b458;fill-opacity:1;stroke:none;stroke-width:0.0266522"
         d="m 114.75277,40.810895 c -2.14625,0.509359 -4.08053,2.225095 -5.00793,4.450191 -0.71542,1.635311 -0.63593,4.986358 0.13249,6.728903 0.68892,1.581694 2.14625,3.056155 3.65658,3.726365 1.40434,0.616593 4.58398,0.643401 6.35928,0.02681 1.8283,-0.643401 2.09326,-0.99191 1.51033,-2.117862 -0.74192,-1.501269 -0.82141,-1.554886 -1.82829,-1.125952 -1.32485,0.562976 -3.5241,0.482551 -4.55749,-0.16085 -0.79491,-0.482551 -1.66931,-1.742545 -1.66931,-2.412754 0,-0.16085 1.53683,-0.268084 4.50449,-0.268084 h 4.478 l 0.18547,-0.938293 c 0.23848,-1.367228 -0.31796,-4.101682 -1.05988,-5.254443 -1.53682,-2.30552 -4.02754,-3.297431 -6.70374,-2.654029 z m 3.39162,3.994448 c 0.45045,0.455743 0.76841,1.072335 0.76841,1.474461 v 0.697018 h -2.80868 -2.80868 l 0.15898,-0.750635 c 0.50344,-2.091053 3.20614,-2.922113 4.68997,-1.420844 z"
         id="path1471" />
      <path
         style="fill:#56b458;fill-opacity:1;stroke:none;stroke-width:0.0266522"
         d="m 129.82957,40.837703 c -1.11288,0.214467 -4.29252,1.528078 -4.29252,1.769353 0,0.08042 0.31797,0.723826 0.74192,1.447653 0.50344,0.938293 0.82141,1.259993 1.11287,1.15276 2.96767,-1.340419 4.61048,-1.394036 5.56437,-0.187659 0.8744,1.125952 0.68892,1.340419 -1.37784,1.688928 -4.84895,0.83106 -6.80973,2.546796 -6.49177,5.710185 0.10599,1.367228 0.68893,2.359138 1.88129,3.243814 0.55644,0.428934 1.11287,0.562976 2.38473,0.562976 1.40434,0 1.88129,-0.134042 3.04716,-0.857868 0.76841,-0.482551 1.43083,-0.884677 1.48383,-0.884677 0.053,0 0.15898,0.375318 0.26497,0.804252 0.15898,0.804251 0.18548,0.804251 1.90778,0.804251 h 1.72231 l -0.10599,-5.710185 c -0.0795,-4.905933 -0.15898,-5.817418 -0.58294,-6.62167 -1.40434,-2.680838 -3.76257,-3.619131 -7.26017,-2.922113 z m 3.65658,9.490166 c 0,1.394036 -0.053,1.528078 -0.8479,2.010629 -1.24536,0.777443 -2.72919,0.723826 -3.28563,-0.134042 -0.79491,-1.233185 0.10599,-2.332329 2.49072,-2.97573 0.68892,-0.187659 1.32485,-0.348509 1.45733,-0.348509 0.10599,-0.02681 0.18548,0.643401 0.18548,1.447652 z"
         id="path1473" />
      <path
         style="fill:#56b458;fill-opacity:1;stroke:none;stroke-width:0.0266522"
         d="m 146.54917,40.944936 c -0.76841,0.214468 -1.88128,0.697018 -2.46422,1.099144 -3.65658,2.466371 -4.21302,8.927191 -1.03338,12.144196 2.11976,2.144671 5.61736,2.680838 8.53203,1.313611 0.82141,-0.402126 1.51033,-0.83106 1.51033,-0.938293 0,-0.134042 -0.37096,-0.804252 -0.79491,-1.50127 -0.71542,-1.15276 -0.8479,-1.259994 -1.35134,-0.965101 -1.74881,0.938293 -3.28563,0.857868 -4.37201,-0.268084 -0.92739,-0.911485 -1.19236,-1.742545 -1.19236,-3.431473 0,-3.029347 2.11976,-4.825508 4.68996,-3.940832 0.55644,0.187659 1.08638,0.294892 1.16587,0.241276 0.10599,-0.05362 0.50345,-0.589785 0.9274,-1.206377 0.71542,-1.045527 0.71542,-1.099144 0.26497,-1.608503 -0.52994,-0.589785 -2.72919,-1.340419 -3.81557,-1.313611 -0.37096,0 -1.32485,0.187659 -2.06677,0.375317 z"
         id="path1475" />
      <path
         style="fill:#56b458;fill-opacity:1;stroke:none;stroke-width:0.0266522"
         d="m 196.6285,40.810895 c -1.27185,0.294892 -3.15314,1.501269 -3.89506,2.493179 -1.16586,1.554886 -1.56332,2.841688 -1.58982,5.147209 0,4.423383 2.41123,7.318688 6.57126,7.801238 1.53683,0.187659 4.29251,-0.402125 5.51138,-1.179568 l 0.71542,-0.455743 -0.76842,-1.259994 -0.79491,-1.259993 -0.9009,0.375317 c -1.37784,0.589784 -3.55059,0.509359 -4.61047,-0.134042 -0.71542,-0.455742 -1.64282,-1.876587 -1.64282,-2.519988 0,-0.08043 2.06677,-0.187658 4.58398,-0.214467 l 4.55749,-0.08042 0.0795,-1.420844 c 0.26497,-4.879125 -3.41811,-8.364215 -7.81662,-7.291879 z m 3.47111,4.048065 c 0.37096,0.455742 0.68892,1.099144 0.68892,1.474461 0,0.643401 -0.0265,0.643401 -2.78218,0.643401 -1.7753,0 -2.78219,-0.107234 -2.78219,-0.268084 0,-0.562976 0.79491,-1.849778 1.37785,-2.251904 0.31796,-0.241275 1.08637,-0.428934 1.69581,-0.428934 0.92739,0 1.24535,0.134042 1.80179,0.83106 z"
         id="path1477" />
      <path
         style="fill:#56b458;fill-opacity:1;stroke:none;stroke-width:0.0266522"
         d="m 167.93225,48.451283 v 7.640388 h 1.98728 1.98727 v -7.640388 -7.640388 h -1.98727 -1.98728 z"
         id="path1479" />
      <path
         style="fill:#56b458;fill-opacity:1;stroke:none;stroke-width:0.0266522"
         d="m 174.82147,40.998553 c 0,0.134042 1.11288,3.538706 2.49072,7.586772 l 2.49072,7.372304 2.51721,0.08043 2.54372,0.08043 2.41122,-7.425922 c 1.29836,-4.101682 2.38473,-7.533154 2.38473,-7.667196 0,-0.107234 -0.9009,-0.214467 -1.98727,-0.214467 h -1.96078 l -0.52994,1.796161 c -1.11287,3.860407 -2.41123,8.873574 -2.41123,9.2757 0,0.536167 -0.50344,0.857868 -0.63593,0.402125 -0.0795,-0.187658 -0.60943,-2.225095 -1.21886,-4.503808 -0.60943,-2.278712 -1.27185,-4.7987 -1.48383,-5.576143 l -0.39745,-1.394035 h -2.11976 c -1.13938,0 -2.09327,0.08042 -2.09327,0.187658 z"
         id="path1481" />
    </g>
  </g>
</svg>
